<?xml version="1.0" standalone="no"?><!DOCTYPE svg PUBLIC "-//W3C//DTD SVG 1.1//EN" "http://www.w3.org/Graphics/SVG/1.1/DTD/svg11.dtd"><svg t="1731543145261" class="icon" viewBox="0 0 1024 1024" version="1.1" xmlns="http://www.w3.org/2000/svg" p-id="5156" xmlns:xlink="http://www.w3.org/1999/xlink" width="200" height="200"><path d="M256 384c70.4 0 128-57.6 128-128s-57.6-128-128-128-128 57.6-128 128 57.6 128 128 128z m0-170.666667c23.466667 0 42.666667 19.2 42.666667 42.666667s-19.2 42.666667-42.666667 42.666667-42.666667-19.2-42.666667-42.666667 19.2-42.666667 42.666667-42.666667zM256 640c-70.4 0-128 57.6-128 128s57.6 128 128 128 128-57.6 128-128-57.6-128-128-128z m0 170.666667c-23.466667 0-42.666667-19.2-42.666667-42.666667s19.2-42.666667 42.666667-42.666667 42.666667 19.2 42.666667 42.666667-19.2 42.666667-42.666667 42.666667zM371.2 407.466667c-12.8-12.8-32-12.8-44.8 0l-98.133333 98.133333-38.4-38.4c-12.8-12.8-32-12.8-44.8 0l-14.933334 14.933333c-12.8 12.8-12.8 32 0 44.8l74.666667 74.666667c12.8 12.8 32 12.8 44.8 0l14.933333-14.933333 121.6-121.6c12.8-12.8 12.8-32 0-44.8l-14.933333-12.8zM501.333333 298.666667h277.333334c17.066667 0 32-14.933333 32-32v-21.333334c0-17.066667-14.933333-32-32-32h-277.333334c-17.066667 0-32 14.933333-32 32v21.333334c0 17.066667 14.933333 32 32 32zM864 469.333333h-362.666667c-17.066667 0-32 14.933333-32 32v21.333334c0 17.066667 14.933333 32 32 32h362.666667c17.066667 0 32-14.933333 32-32v-21.333334c0-17.066667-14.933333-32-32-32zM693.333333 725.333333h-192c-17.066667 0-32 14.933333-32 32v21.333334c0 17.066667 14.933333 32 32 32h192c17.066667 0 32-14.933333 32-32v-21.333334c0-17.066667-14.933333-32-32-32z" fill="#2c2c2c" p-id="5157"></path></svg>