<?xml version="1.0" standalone="no"?><!DOCTYPE svg PUBLIC "-//W3C//DTD SVG 1.1//EN" "http://www.w3.org/Graphics/SVG/1.1/DTD/svg11.dtd"><svg t="1731915736018" class="icon" viewBox="0 0 1102 1024" version="1.1" xmlns="http://www.w3.org/2000/svg" p-id="7460" xmlns:xlink="http://www.w3.org/1999/xlink" width="215.234375" height="200"><path d="M551.384615 1024C267.815385 1024 39.384615 795.569231 39.384615 512S267.815385 0 551.384615 0s512 228.430769 512 512c0 23.630769-15.753846 39.384615-39.384615 39.384615s-39.384615-15.753846-39.384615-39.384615C984.615385 275.692308 787.692308 78.769231 551.384615 78.769231S118.153846 275.692308 118.153846 512 315.076923 945.230769 551.384615 945.230769c86.646154 0 165.415385-23.630769 236.307693-70.892307 15.753846-7.876923 39.384615-7.876923 55.138461 7.876923 15.753846 15.753846 7.876923 39.384615-7.876923 55.138461C748.307692 992.492308 653.784615 1024 551.384615 1024z" fill="#13227a" p-id="7461"></path></svg>