<?xml version="1.0" standalone="no"?><!DOCTYPE svg PUBLIC "-//W3C//DTD SVG 1.1//EN" "http://www.w3.org/Graphics/SVG/1.1/DTD/svg11.dtd"><svg t="1731915861028" class="icon" viewBox="0 0 1024 1024" version="1.1" xmlns="http://www.w3.org/2000/svg" p-id="8263" xmlns:xlink="http://www.w3.org/1999/xlink" width="200" height="200"><path d="M508.3648 68.266667C274.688 68.266667 85.333333 258.286933 85.333333 492.629333l0.0512 7.202134c2.1504 126.976 65.194667 244.736 172.987734 323.037866l5.922133 4.215467 15.325867 99.703467A34.133333 34.133333 0 0 0 313.361067 955.733333h389.9904l2.781866-0.119466a34.133333 34.133333 0 0 0 30.958934-28.842667l15.325866-99.84c112.64-80.520533 179.1488-203.6224 178.978134-334.336C931.396267 258.286933 742.024533 68.266667 508.3648 68.266667z m0 68.266666c195.908267 0 354.7648 159.402667 354.7648 356.096 0.136533 112.1792-59.562667 218.4704-161.1264 286.173867l-2.56 1.877333a34.133333 34.133333 0 0 0-12.253867 21.333334L674.065067 887.466667h-331.434667l-13.1072-85.4528a34.133333 34.133333 0 0 0-15.069867-23.381334C212.206933 711.799467 153.463467 606.242133 153.6 492.663467 153.6 295.936 312.439467 136.533333 508.3648 136.533333z" fill="#2c2c2c" p-id="8264"></path><path d="M356.5056 399.872a130.8672 130.8672 0 1 0 130.8672 130.850133 34.133333 34.133333 0 0 0-10.001067-24.149333l-96.733866-96.7168a34.133333 34.133333 0 0 0-24.132267-9.984z m-12.834133 69.5808l74.103466 74.069333-0.034133 0.2048a62.634667 62.634667 0 0 1-123.835733-13.0048 62.634667 62.634667 0 0 1 46.472533-60.484266l3.293867-0.785067zM660.241067 399.872a34.133333 34.133333 0 0 0-24.132267 10.001067l-96.733867 96.7168a34.133333 34.133333 0 0 0-10.001066 24.132266 130.8672 130.8672 0 1 0 130.8672-130.850133z m-61.303467 143.6672l74.103467-74.0864 0.2048 0.0512a62.6176 62.6176 0 0 1-13.0048 123.818667l-3.328-0.085334a62.634667 62.634667 0 0 1-57.156267-46.250666l-0.8192-3.447467z" fill="#2c2c2c" p-id="8265"></path><path d="M402.158933 751.735467l84.753067-84.770134a34.133333 34.133333 0 0 1 46.984533-1.2288l94.139734 84.770134-45.687467 50.722133-70.075733-63.112533-61.832534 61.883733-48.2816-48.264533z" fill="#2c2c2c" p-id="8266"></path></svg>